<svg width="128" height="129" viewBox="0 0 128 129" fill="none" xmlns="http://www.w3.org/2000/svg">
<path d="M13.1497 3.9502H115.28C120.06 3.9502 123.94 7.8702 123.94 12.7102V116.22C123.94 121.06 120.06 124.98 115.28 124.98H13.1497C8.36973 124.98 4.48975 121.06 4.48975 116.22V12.7102C4.48975 7.8702 8.36973 3.9502 13.1497 3.9502Z" stroke="#D40000" stroke-width="7.89"/>
<path d="M99.8898 62.0001C99.8898 81.9601 83.9198 98.1501 64.2198 98.1501C44.5198 98.1501 28.5498 81.9701 28.5498 62.0001C28.5498 42.0301 44.5198 25.8501 64.2198 25.8501C83.9198 25.8501 99.8898 42.0301 99.8898 62.0001Z" fill="#D40000"/>
<path d="M25.3798 117.48C24.4298 115.78 23.4098 114.1 22.3098 112.44C21.2098 110.78 20.0398 109.21 18.7898 107.74V117.49H15.5298V102.61H18.2198C18.6898 103.08 19.1998 103.66 19.7698 104.35C20.3298 105.04 20.9098 105.77 21.4898 106.56C22.0798 107.33 22.6698 108.14 23.2498 108.99C23.8298 109.82 24.3698 110.62 24.8798 111.39V102.61H28.1598V117.49H25.3798" fill="#D40000"/>
<path d="M34.3197 110.03C34.3197 110.76 34.3997 111.42 34.5697 112.01C34.7497 112.6 35.0097 113.1 35.3297 113.53C35.6697 113.95 36.0797 114.27 36.5597 114.5C37.0397 114.73 37.5897 114.84 38.2097 114.84C38.8297 114.84 39.3597 114.73 39.8397 114.5C40.3297 114.27 40.7397 113.95 41.0697 113.53C41.4097 113.1 41.6597 112.59 41.8297 112.01C42.0097 111.42 42.1097 110.76 42.1097 110.03C42.1097 109.3 42.0197 108.64 41.8297 108.05C41.6597 107.45 41.4097 106.94 41.0697 106.53C40.7497 106.1 40.3397 105.77 39.8397 105.54C39.3597 105.31 38.8197 105.2 38.2097 105.2C37.5997 105.2 37.0397 105.32 36.5597 105.56C36.0797 105.79 35.6697 106.12 35.3297 106.55C35.0097 106.97 34.7497 107.47 34.5697 108.07C34.3997 108.66 34.3197 109.31 34.3197 110.02M45.5297 110.02C45.5297 111.29 45.3397 112.42 44.9597 113.39C44.5897 114.35 44.0797 115.16 43.4297 115.82C42.7797 116.46 41.9997 116.95 41.0997 117.28C40.2097 117.61 39.2497 117.77 38.2197 117.77C37.1897 117.77 36.2697 117.61 35.3797 117.28C34.4897 116.95 33.7097 116.46 33.0497 115.82C32.3897 115.16 31.8597 114.35 31.4797 113.39C31.0997 112.42 30.9097 111.29 30.9097 110.02C30.9097 108.75 31.1097 107.63 31.4997 106.67C31.8997 105.7 32.4297 104.88 33.0897 104.22C33.7697 103.56 34.5397 103.07 35.4197 102.74C36.3097 102.41 37.2397 102.25 38.2197 102.25C39.1997 102.25 40.1697 102.41 41.0597 102.74C41.9497 103.07 42.7297 103.56 43.3897 104.22C44.0497 104.88 44.5797 105.69 44.9597 106.67C45.3397 107.63 45.5297 108.75 45.5297 110.02Z" fill="#D40000"/>
<path d="M58.1098 117.48C57.1598 115.78 56.1398 114.1 55.0398 112.44C53.9398 110.78 52.7698 109.21 51.5198 107.74V117.49H48.2598V102.61H50.9498C51.4198 103.08 51.9298 103.66 52.4998 104.35C53.0598 105.04 53.6398 105.77 54.2198 106.56C54.8098 107.33 55.3998 108.14 55.9798 108.99C56.5598 109.82 57.0998 110.62 57.6098 111.39V102.61H60.8898V117.49H58.1098" fill="#D40000"/>
<path d="M63.1099 109.63H69.2499V112.53H63.1099V109.63Z" fill="#D40000"/>
<path d="M75.2196 117.48C74.6396 116.23 74.0696 114.94 73.4996 113.59C72.9296 112.24 72.3996 110.91 71.8896 109.6C71.3796 108.28 70.9096 107.02 70.4696 105.82C70.0496 104.62 69.6796 103.54 69.3696 102.6H73.0096C73.2896 103.46 73.5996 104.39 73.9196 105.39L74.9396 108.35C75.2896 109.34 75.6296 110.28 75.9596 111.18C76.2796 112.08 76.5896 112.86 76.8696 113.52C77.1396 112.86 77.4296 112.08 77.7596 111.18C78.0996 110.28 78.4396 109.33 78.7796 108.35C79.1296 107.36 79.4696 106.37 79.7996 105.39C80.1396 104.39 80.4496 103.46 80.7296 102.6H84.2496C83.9296 103.54 83.5496 104.62 83.1296 105.82C82.7096 107.02 82.2396 108.28 81.7296 109.6C81.2196 110.92 80.6796 112.25 80.1196 113.59C79.5496 114.94 78.9796 116.23 78.3996 117.48H75.2196Z" fill="#D40000"/>
<path d="M86.1699 117.48V102.6H96.0899V105.41H89.4799V108.33H95.3499V111.08H89.4799V114.67H96.5799V117.48H86.1799" fill="#D40000"/>
<path d="M106.15 105.18C104.61 105.18 103.49 105.62 102.8 106.49C102.12 107.35 101.78 108.53 101.78 110.03C101.78 110.76 101.86 111.43 102.03 112.03C102.2 112.62 102.45 113.12 102.79 113.55C103.13 113.98 103.55 114.32 104.06 114.56C104.57 114.79 105.16 114.9 105.84 114.9C106.21 114.9 106.52 114.9 106.77 114.88C107.04 114.87 107.27 114.84 107.47 114.79V109.62H110.78V116.98C110.38 117.14 109.75 117.3 108.87 117.47C107.99 117.66 106.91 117.75 105.63 117.75C104.53 117.75 103.53 117.58 102.62 117.23C101.73 116.89 100.97 116.39 100.33 115.73C99.6898 115.07 99.1999 114.26 98.8499 113.3C98.5099 112.34 98.3398 111.25 98.3398 110.02C98.3398 108.79 98.5299 107.67 98.9099 106.71C99.2899 105.75 99.8098 104.94 100.48 104.28C101.14 103.61 101.92 103.1 102.81 102.76C103.71 102.42 104.67 102.24 105.69 102.24C106.38 102.24 107 102.29 107.55 102.39C108.11 102.48 108.6 102.58 108.99 102.71C109.4 102.82 109.73 102.95 109.99 103.07C110.26 103.2 110.45 103.3 110.56 103.37L109.61 106.05C109.16 105.81 108.64 105.6 108.04 105.43C107.46 105.24 106.83 105.15 106.13 105.15" fill="#D40000"/>
</svg>
