<svg width="128" height="129" viewBox="0 0 128 129" fill="none" xmlns="http://www.w3.org/2000/svg">
<path d="M12.66 4H114.8C119.58 4 123.46 7.92 123.46 12.76V116.27C123.46 121.11 119.58 125.03 114.8 125.03H12.66C7.88 125.03 4 121.11 4 116.27V12.76C4.01 7.92 7.88 4 12.66 4Z" stroke="#007A00" stroke-width="7.89"/>
<path d="M99.4001 62.0499C99.4001 82.0099 83.4301 98.1999 63.7301 98.1999C44.0301 98.1999 28.0601 82.0099 28.0601 62.0499C28.0601 42.0899 44.0301 25.8999 63.7301 25.8999C83.4301 25.8999 99.4001 42.0799 99.4001 62.0499Z" fill="#008000"/>
<path d="M47.0902 117.58C46.5102 116.33 45.9402 115.04 45.3702 113.69C44.8102 112.34 44.2702 111.01 43.7602 109.7C43.2502 108.39 42.7802 107.12 42.3402 105.92C41.9202 104.72 41.5502 103.64 41.2402 102.7H44.8802C45.1602 103.56 45.4702 104.49 45.7902 105.49C46.1302 106.48 46.4702 107.47 46.8102 108.45C47.1602 109.44 47.5002 110.38 47.8302 111.28C48.1502 112.18 48.4602 112.96 48.7402 113.62C49.0102 112.96 49.3002 112.18 49.6302 111.28C49.9702 110.38 50.3102 109.43 50.6502 108.45C51.0002 107.46 51.3402 106.47 51.6702 105.49C52.0102 104.49 52.3202 103.56 52.6002 102.7H56.1202C55.8002 103.64 55.4202 104.72 55.0002 105.92C54.5802 107.12 54.1102 108.38 53.6002 109.7C53.0902 111.02 52.5502 112.35 51.9902 113.69C51.4302 115.03 50.8502 116.33 50.2702 117.58H47.0902Z" fill="#008000"/>
<path d="M58.04 117.58V102.7H67.96V105.51H61.35V108.43H67.22V111.18H61.35V114.77H68.45V117.58H58.05" fill="#008000"/>
<path d="M78.0302 105.28C76.4902 105.28 75.3702 105.72 74.6802 106.59C74.0002 107.45 73.6602 108.63 73.6602 110.13C73.6602 110.86 73.7402 111.53 73.9102 112.13C74.0802 112.72 74.3302 113.22 74.6702 113.65C75.0102 114.08 75.4302 114.42 75.9402 114.66C76.4502 114.89 77.0402 115 77.7202 115C78.0902 115 78.4002 115 78.6502 114.98C78.9202 114.97 79.1502 114.94 79.3502 114.89V109.72H82.6602V117.08C82.2602 117.24 81.6302 117.4 80.7502 117.57C79.8702 117.76 78.7902 117.85 77.5102 117.85C76.4102 117.85 75.4102 117.68 74.5002 117.33C73.6102 116.99 72.8502 116.49 72.2102 115.83C71.5702 115.17 71.0802 114.36 70.7302 113.4C70.3902 112.44 70.2202 111.35 70.2202 110.12C70.2202 108.89 70.4102 107.77 70.7902 106.81C71.1702 105.85 71.6902 105.04 72.3602 104.38C73.0202 103.71 73.8002 103.2 74.6902 102.86C75.5902 102.52 76.5502 102.34 77.5702 102.34C78.2602 102.34 78.8802 102.39 79.4302 102.49C79.9902 102.58 80.4802 102.68 80.8702 102.81C81.2802 102.92 81.6102 103.05 81.8702 103.17C82.1402 103.3 82.3302 103.4 82.4402 103.47L81.4902 106.15C81.0402 105.91 80.5202 105.7 79.9202 105.53C79.3402 105.34 78.7102 105.25 78.0102 105.25" fill="#008000"/>
</svg>
